<svg width="40" height="40" viewBox="0 0 40 40" xmlns="http://www.w3.org/2000/svg">
  <defs>
    <linearGradient id="gradient" x1="0%" y1="0%" x2="100%" y2="100%">
      <stop offset="0%" style="stop-color:#FF6B35;stop-opacity:1" />
      <stop offset="100%" style="stop-color:#F7931E;stop-opacity:1" />
    </linearGradient>
  </defs>
  
  <!-- Background circle -->
  <circle cx="20" cy="20" r="18" fill="url(#gradient)" stroke="#fff" stroke-width="2"/>
  
  <!-- S3 bucket icon -->
  <g transform="translate(8, 8)">
    <!-- Bucket base -->
    <path d="M2 20 L22 20 L20 24 L4 24 Z" fill="#fff" opacity="0.9"/>
    
    <!-- Bucket body -->
    <rect x="3" y="8" width="18" height="12" rx="1" fill="#fff" opacity="0.8"/>
    
    <!-- Arrow indicating migration -->
    <path d="M12 4 L16 8 L14 8 L14 12 L10 12 L10 8 L8 8 Z" fill="#fff"/>
    
    <!-- Data blocks -->
    <rect x="5" y="10" width="3" height="2" fill="url(#gradient)" opacity="0.7"/>
    <rect x="9" y="10" width="3" height="2" fill="url(#gradient)" opacity="0.7"/>
    <rect x="13" y="10" width="3" height="2" fill="url(#gradient)" opacity="0.7"/>
    
    <rect x="5" y="13" width="3" height="2" fill="url(#gradient)" opacity="0.7"/>
    <rect x="9" y="13" width="3" height="2" fill="url(#gradient)" opacity="0.7"/>
    <rect x="13" y="13" width="3" height="2" fill="url(#gradient)" opacity="0.7"/>
    
    <rect x="5" y="16" width="3" height="2" fill="url(#gradient)" opacity="0.7"/>
    <rect x="9" y="16" width="3" height="2" fill="url(#gradient)" opacity="0.7"/>
    <rect x="13" y="16" width="3" height="2" fill="url(#gradient)" opacity="0.7"/>
  </g>
</svg>